<?xml version="1.0" encoding="utf-8"?>
<!-- Generator: Adobe Illustrator 27.2.0, SVG Export Plug-In . SVG Version: 6.00 Build 0)  -->
<svg version="1.1" id="Layer_1" xmlns="http://www.w3.org/2000/svg" xmlns:xlink="http://www.w3.org/1999/xlink" x="0px" y="0px"
	 viewBox="0 0 800 800" style="enable-background:new 0 0 800 800;" xml:space="preserve">
<style type="text/css">
	.st0{fill-rule:evenodd;clip-rule:evenodd;fill:#0099CD;}
</style>
<path class="st0" d="M800,238.5c0.1-11.1-5.2-22.4-16.1-28.8L450.8,13.6c-30.7-18.1-68.5-18.1-99.2-0.1L16.4,209.7
	c-10.9,6.5-16.4,17.7-16.3,29H0v331.7h0.1C0.4,581.2,6,592,16.8,598l336.1,189.3c29.9,16.9,66.4,16.9,96.3-0.1l334-189.2
	c10.8-6.2,16.3-16.9,16.7-27.7L800,238.5z M78.4,263.7c-8-4.6-18.1-1.7-22.7,6.3c-4.5,8-1.7,18.2,6.3,22.8l282.7,160.1
	c35.2,20,78.3,19.8,113.3-0.3l279.1-159.9c8-4.6,10.8-14.9,6.3-22.9s-14.8-10.8-22.8-6.3L441.5,423.7C416.6,438,386,438,361,423.8
	L78.4,263.7z"/>
</svg>
