<?xml version="1.0" encoding="utf-8"?>
<!-- Generator: Adobe Illustrator 27.2.0, SVG Export Plug-In . SVG Version: 6.00 Build 0)  -->
<svg version="1.1" id="Layer_1" xmlns="http://www.w3.org/2000/svg" xmlns:xlink="http://www.w3.org/1999/xlink" x="0px" y="0px"
	 viewBox="0 0 800 800" style="enable-background:new 0 0 800 800;" xml:space="preserve">
<style type="text/css">
	.st0{fill:#0099CE;}
</style>
<g>
	<g>
		<path class="st0" d="M800,100c0-18.4-14.9-33.3-33.3-33.3H533.3V33.3C533.3,14.9,518.4,0,500,0H300c-18.4,0-33.3,14.9-33.3,33.3
			v33.3H33.3C14.9,66.7,0,81.6,0,100v400c0,0,0,0,0,0c0,0,0,0,0,0v133.3c0,18.4,14.9,33.3,33.3,33.3h286.2l-76.4,76.4
			c-13,13-13,34.1,0,47.1c13,13,34.1,13,47.1,0L400,680.5l109.8,109.8c13,13,34.1,13,47.1,0c13-13,13-34.1,0-47.1l-76.4-76.4h286.2
			c18.4,0,33.3-14.9,33.3-33.3V500c0,0,0,0,0,0c0,0,0,0,0,0L800,100L800,100z M147.1,466.7L300,313.8l109.8,109.8
			c13,13,34.1,13,47.1,0l76.4-76.4l119.5,119.5L147.1,466.7L147.1,466.7z M333.3,66.7h133.3V100v33.3H333.3V100V66.7z M266.7,133.3
			v33.3v0c0,18.4,14.9,33.3,33.3,33.3h200c18.4,0,33.3-14.9,33.3-33.3v0v-33.3h200v319.5L556.9,276.4c-13-13-34.1-13-47.1,0
			l-76.4,76.4L323.6,243.1c-13-13-34.1-13-47.1,0L66.7,452.9V133.3H266.7z M733.3,600h-333c-0.2,0-0.5,0-0.7,0h-333v-66.7h666.7V600
			z"/>
	</g>
</g>
</svg>
