<?xml version="1.0" encoding="utf-8"?>
<!-- Generator: Adobe Illustrator 27.2.0, SVG Export Plug-In . SVG Version: 6.00 Build 0)  -->
<svg version="1.1" id="Capa_1" xmlns="http://www.w3.org/2000/svg" xmlns:xlink="http://www.w3.org/1999/xlink" x="0px" y="0px"
	 viewBox="0 0 800 800" style="enable-background:new 0 0 800 800;" xml:space="preserve">
<style type="text/css">
	.st0{fill:#009ACE;}
</style>
<g>
	<path class="st0" d="M766.2,144L663.9,42.8C618.6-1.8,545.1-2.1,499.7,42.3L386.2,153c-45.5,44.4-45.7,116.6-0.5,161.1l64.9-62.3
		c-6.6-19.8,1.5-42.6,17.6-58.3l72.2-70.4c22.9-22.2,59.6-22.1,82.2,0.3l61.4,60.7c22.6,22.4,22.5,58.3-0.3,80.6l-72.2,70.5
		c-15.3,14.9-40.4,23.1-59.8,17.8l-63.5,62.4c45.2,44.7,118.7,44.9,164.2,0.5l113.4-110.6C811.3,260.8,811.4,188.6,766.2,144z"/>
	<path class="st0" d="M350.6,549.2c5.4,19.4-3.2,44.5-18.9,59.7l-67.5,65.9c-23.1,22.6-60.6,22.5-83.6-0.3L118,612.8
		c-23-22.7-22.8-59.7,0.3-82.2l67.5-65.9c16.5-16,40.1-24.1,60.7-17.3l65.1-64.5c-46.1-45.4-121-45.7-167.3-0.5L34.9,489.4
		c-46.3,45.2-46.5,118.8-0.5,164.3l104.2,103c46,45.4,120.9,45.6,167.3,0.5l109.4-106.9c46.3-45.3,46.5-118.8,0.5-164.2L350.6,549.2
		z"/>
	<path class="st0" d="M279.4,519.8c15.3,15.5,40.4,15.6,56,0.2l187-186c15.6-15.5,15.7-40.5,0.2-56c-15.4-15.4-40.4-15.5-55.9-0.2
		l-187.1,186C264.1,479.2,264,504.2,279.4,519.8z"/>
</g>
</svg>
