<?xml version="1.0" encoding="utf-8"?>
<!-- Generator: Adobe Illustrator 27.2.0, SVG Export Plug-In . SVG Version: 6.00 Build 0)  -->
<svg version="1.1" id="Layer_1" xmlns="http://www.w3.org/2000/svg" xmlns:xlink="http://www.w3.org/1999/xlink" x="0px" y="0px"
	 viewBox="0 0 800 800" style="enable-background:new 0 0 800 800;" xml:space="preserve">
<style type="text/css">
	.st0{fill:#0099CE;}
</style>
<g>
	<path class="st0" d="M275,350c-96.5,0-175,78.5-175,175s78.5,175,175,175s175-78.5,175-175S371.5,350,275,350z M275,650
		c-68.9,0-125-56.1-125-125s56.1-125,125-125s125,56.1,125,125S343.9,650,275,650z"/>
	<path class="st0" d="M300,550v-75c0-13.8-11.2-25-25-25h-25c-13.8,0-25,11.2-25,25s11.2,25,25,25v50c-13.8,0-25,11.2-25,25
		s11.2,25,25,25h50c13.8,0,25-11.2,25-25S313.8,550,300,550z"/>
	<path class="st0" d="M499.8,0C350.8,0,200,42.9,200,125v135.7C84.7,293.4,0,399.4,0,525c0,151.6,123.4,275,275,275
		c60.4,0,116.2-19.8,161.6-53c20.9,1.8,42.1,3,63.4,3c149.1,0,300-42.9,300-125V125C800,42.9,649,0,499.8,0z M50,525
		c0-124.1,100.9-225,225-225s225,100.9,225,225S399.1,750,275,750S50,649.1,50,525z M750,625c0,29.9-99.7,75-250,75
		c-4.4,0-8.4-0.3-12.7-0.4c18.5-22.4,33.2-47.9,43.9-75.5c85.7-3.5,168.3-21,218.8-52.2L750,625L750,625z M750,500
		c0,26.7-80.1,65.6-204.5,73.5c2.8-15.8,4.5-31.9,4.5-48.5c0-9.1-0.5-18-1.4-26.9C628,493.1,703,476,750,446.9V500z M750,375
		c0,27.2-82.8,66.9-211,73.8c-7.7-26.5-19.1-51.4-33.9-73.9c94.8-0.7,189.3-18.6,244.9-53V375z M750,250c0,29.9-99.9,75-250.2,75
		c-13.1,0-25.6-0.5-37.9-1.1C412.8,278.2,347.2,250,275,250c-8.3,0-16.6,0.5-24.7,1.3c0-0.4-0.3-0.8-0.3-1.3v-52.9
		c56.6,34.9,153.4,52.9,249.8,52.9c96.5,0,193.5-18.1,250.2-53V250z M499.8,200C349.6,200,250,154.9,250,125s99.6-75,249.8-75
		C650.2,50,750,95.1,750,125S650.2,200,499.8,200z"/>
</g>
</svg>
