<?xml version="1.0" encoding="utf-8"?>
<!-- Generator: Adobe Illustrator 27.2.0, SVG Export Plug-In . SVG Version: 6.00 Build 0)  -->
<svg version="1.1" id="Capa_1" xmlns="http://www.w3.org/2000/svg" xmlns:xlink="http://www.w3.org/1999/xlink" x="0px" y="0px"
	 viewBox="0 0 800 800" style="enable-background:new 0 0 800 800;" xml:space="preserve">
<style type="text/css">
	.st0{fill:#0099CD;}
</style>
<g>
	<path class="st0" d="M572.2,444.9c0,10.2,8.3,18.4,18.4,18.4c10.2,0,18.4-8.3,18.4-18.4c0-38.4-26.8-70.7-62.8-79.1v-12.8
		c0-10.2-8.3-18.4-18.4-18.4c-10.2,0-18.4,8.3-18.4,18.4v12.8c-35.9,8.4-62.8,40.6-62.8,79.1s26.8,70.7,62.8,79.1v86.8
		c-15.3-7-25.9-22.4-25.9-40.3c0-10.2-8.3-18.4-18.4-18.4c-10.2,0-18.4,8.3-18.4,18.4c0,38.4,26.8,70.7,62.8,79.1v12.8
		c0,10.2,8.3,18.4,18.4,18.4c10.2,0,18.4-8.3,18.4-18.4v-12.8c35.9-8.4,62.8-40.6,62.8-79.1c0-38.4-26.8-70.7-62.8-79.1v-86.8
		C561.6,411.6,572.2,427,572.2,444.9z M483.5,444.9c0-17.9,10.6-33.3,25.9-40.3v80.6C494.2,478.2,483.5,462.8,483.5,444.9z
		 M572.2,570.4c0,17.9-10.6,33.3-25.9,40.3v-80.6C561.6,537.2,572.2,552.6,572.2,570.4z"/>
	<path class="st0" d="M542.6,235.9V47.8c0-15.3-12.4-27.7-27.7-27.7H27.7C12.4,20.2,0,32.6,0,47.8v704.3c0,15.3,12.4,27.7,27.7,27.7
		h487.2c1.1,0,2.1-0.1,3.2-0.2c3.3,0.1,6.5,0.2,9.8,0.2c150.1,0,272.1-122.1,272.1-272.1C800,362.5,685.8,243.6,542.6,235.9z
		 M255.9,498.8H55.3v-80.3h215.4C261.9,443.7,256.8,470.7,255.9,498.8z M55.3,535.7h201.8c2.9,28.3,10.2,55.3,21.1,80.3H55.3V535.7z
		 M286.7,381.6H55.3v-80.3h295.4C324.7,323.6,302.9,350.9,286.7,381.6z M406.1,264.3H55.3V184h431.9v54.6
		C458.5,242.9,431.2,251.7,406.1,264.3z M487.2,75.5v71.6H55.3V75.5H487.2z M55.3,724.5v-71.6h242.5c17.5,27.6,39.8,51.9,65.8,71.6
		H55.3z M527.9,724.5c-119.6,0-216.8-97.3-216.8-216.8s97.3-216.8,216.8-216.8s216.8,97.3,216.8,216.8S647.4,724.5,527.9,724.5z"/>
</g>
</svg>
