<?xml version="1.0" encoding="utf-8"?>
<!-- Generator: Adobe Illustrator 27.2.0, SVG Export Plug-In . SVG Version: 6.00 Build 0)  -->
<svg version="1.1" id="Layer_1" xmlns="http://www.w3.org/2000/svg" xmlns:xlink="http://www.w3.org/1999/xlink" x="0px" y="0px"
	 viewBox="0 0 800 800" style="enable-background:new 0 0 800 800;" xml:space="preserve">
<style type="text/css">
	.st0{fill-rule:evenodd;clip-rule:evenodd;fill:#0099CE;}
</style>
<g id="Page-1">
	<g id="Dribbble-Light-Preview" transform="translate(-300.000000, -1879.000000)">
		<g id="icons" transform="translate(56.000000, 160.000000)">
			<path id="script-_x5B__x23_1605_x5D_" class="st0" d="M764,2199c0,22.1-17.9,40-40,40H564c-22.1,0-40-17.9-40-40s17.9-40,40-40
				h160C746.1,2159,764,2176.9,764,2199L764,2199z M564,1879h160c51.8,0,40,50.6,40,200c0,22.1-17.9,40-40,40H564
				c-22.1,0-40-17.9-40-40v-160C524,1896.9,541.9,1879,564,1879L564,1879z M884,1879v-80c44.1,0,80,35.9,80,80H884z M804,2359
				c0,44.1-35.9,80-80,80v-80c0-44.2-35.8-80-80-80H484v-400c0-44.2,35.8-80,80-80h240V2359z M644,2439H404c-44.1,0-80-35.9-80-80
				h280c22.1,0,40,17.9,40,40V2439z M884,1719H564c-88.4,0-160,71.6-160,160v400H284c-22.1,0-40,17.9-40,40v40
				c0,88.4,71.6,160,160,160h320c88.4,0,160-71.6,160-160v-400h120c22.1,0,40-17.9,40-40v-40C1044,1790.6,972.4,1719,884,1719
				L884,1719z"/>
		</g>
	</g>
</g>
</svg>
