<?xml version="1.0" encoding="utf-8"?>
<!-- Generator: Adobe Illustrator 27.2.0, SVG Export Plug-In . SVG Version: 6.00 Build 0)  -->
<svg version="1.1" id="Layer_1" xmlns="http://www.w3.org/2000/svg" xmlns:xlink="http://www.w3.org/1999/xlink" x="0px" y="0px"
	 viewBox="0 0 800 800" style="enable-background:new 0 0 800 800;" xml:space="preserve">
<style type="text/css">
	.st0{fill:#0099CE;}
</style>
<path id="XMLID_1277_" class="st0" d="M541.7,482.6c67,0,121.7-54.8,121.7-121.7s-54.8-121.7-121.7-121.7S420,293.9,420,360.9
	C420,427.8,474.8,482.6,541.7,482.6z M541.7,291.3c38.3,0,69.6,31.3,69.6,69.6s-31.3,69.6-69.6,69.6s-69.6-31.3-69.6-69.6
	C472.2,322.6,503.5,291.3,541.7,291.3z M136.5,304.3c0-14.8,11.3-26.1,26.1-26.1h151.3c14.8,0,26.1,11.3,26.1,26.1
	c0,14.8-11.3,26.1-26.1,26.1H162.6C147.8,330.4,136.5,319.1,136.5,304.3z M313.9,426.1H162.6c-14.8,0-26.1-11.3-26.1-26.1
	c0-14.8,11.3-26.1,26.1-26.1h151.3c14.8,0,26.1,11.3,26.1,26.1C340,414.8,328.7,426.1,313.9,426.1z M275.7,495.7
	c0,14.8-11.3,26.1-26.1,26.1h-87c-14.8,0-26.1-11.3-26.1-26.1s11.3-26.1,26.1-26.1h87.8C264.3,469.6,275.7,480.9,275.7,495.7z
	 M800,196.5c0-31.3-26.1-57.4-57.4-57.4H57.4C26.1,139.1,0,165.2,0,196.5v407c0,31.3,26.1,57.4,57.4,57.4h685.2
	c31.3,0,57.4-26.1,57.4-57.4V196.5z M69.6,208.7h660.9v362.6c-37.4-36.5-101.7-60.9-127-69.6c-5.2-1.7-11.3-1.7-17.4,0l-44.3,15.7
	l-44.3-15.7c-5.2-1.7-11.3-0.9-17.4,0.9c-28.7,9.6-110.4,36.5-141.7,88.7H69.6V208.7z M414.8,591.3c20-17.4,46.1-26.1,73.9-36.5
	l44.3,15.7c5.2,1.7,12.2,1.7,17.4,0l44.3-14.8c27.8,10.4,53.9,19.1,73.9,36.5H414.8V591.3z"/>
</svg>
